<svg height="72" viewBox="0 0 70 72" width="70" xmlns="http://www.w3.org/2000/svg"><path d="m38.1027959 62.012c-7.329 0-13.692-2.894-13.692-10.046 0-6.979 5.606-9.503 13.022-10.76 9.085-1.54 15.815-4.814 20.726-9.587.771 18.215-4.436 30.393-20.056 30.393m-6.113-51.621c7.329 0 13.694 2.895 13.694 10.046 0 6.979-5.608 9.504-13.024 10.761-9.084 1.54-15.815 4.814-20.726 9.587-.771-18.216 4.436-30.394 20.056-30.394m38.055 21.321v-31.712h-40.91c-8.405 0-15.23 3.076-20.287 8.351-6.539 6.823-9.384 17.246-8.765 31.864v31.807h40.875c8.405 0 15.23-3.171 20.287-8.445 6.54-6.824 9.418-17.246 8.8-31.865" fill="#0f65a4" fill-rule="evenodd"/></svg>